{"title":"Falling Down-720p MP4 AAC x264 BRRip 1993-CC","uid":7405779,"size":2304536595,"categoryP":"video","categoryS":"hd___movies","magnet":"?xt=urn:btih:01305f6167b60aa752ff2071761ff97d875c6ee5&amp;dn=Falling+Down-720p+MP4+AAC+x264+BRRip+1993-CC&amp;tr=udp%3A%2F%2Ftracker.openbittorrent.com%3A80&amp;tr=udp%3A%2F%2Fopen.demonii.com%3A1337&amp;tr=udp%3A%2F%2Ftracker.coppersurfer.tk%3A6969&amp;tr=udp%3A%2F%2Fexodus.desync.com%3A6969","seeders":2,"leechers":1,"uploader":"Caveman44","files":-1,"time":1341240396,"description":" &lt;a href=&quot;http://www.imdb.com/title/tt0106856/&quot; rel=&quot;nofollow&quot; target=&quot;_NEW&quot;&gt;http://www.imdb.com/title/tt0106856/&lt;/a&gt;\n\nSource: Falling.Down.1993.720p.BluRay.x264-DON\n\nSubs: Brazilian, Czech, Danish, Dutch, English, Estonian, Farsi-Persian, Finnish, French, German, Greek, Italian, Portuguese, Romanian, Slovenian, Spanish, Swedish and Vietnamese.\n\nSample and Screens included.\n\nGeneral\nComplete name                    : Falling Down-720p MP4 AAC x264 BRRip 1993-CC.mp4\nFormat                           : MPEG-4\nFormat profile                   : Base Media\nCodec ID                         : isom\nFile size                        : 2.12 GiB\nDuration                         : 1h 52mn\nOverall bit rate                 : 2 693 Kbps\nEncoded date                     : UTC 2012-06-19 16:48:34\n\nVideo\nID                               : 1\nFormat                           : AVC\nFormat/Info                      : Advanced Video Codec\nFormat profile                   : &lt;a class=&quot;__cf_email__&quot; href=&quot;/cdn-cgi/l/email-protection&quot; data-cfemail=&quot;5c14353b341c106f726d&quot;&gt;[email&amp;#160;protected]&lt;/a&gt;&lt;script cf-hash='f9e31' type=&quot;text/javascript&quot;&gt;\n/* &lt;![CDATA[ */!function(){try{var t=&quot;currentScript&quot;in document?document.currentScript:function(){for(var t=document.getElementsByTagName(&quot;script&quot;),e=t.length;e--;)if(t[e].getAttribute(&quot;cf-hash&quot;))return t[e]}();if(t&amp;&amp;t.previousSibling){var e,r,n,i,c=t.previousSibling,a=c.getAttribute(&quot;data-cfemail&quot;);if(a){for(e=&quot;&quot;,r=parseInt(a.substr(0,2),16),n=2;a.length-n;n+=2)i=parseInt(a.substr(n,2),16)^r,e+=String.fromCharCode(i);e=document.createTextNode(e),c.parentNode.replaceChild(e,c)}}}catch(u){}}();/* ]]&gt; */&lt;/script&gt;\nFormat settings, CABAC           : Yes\nFormat settings, ReFrames        : 5 frames\nCodec ID                         : avc1\nCodec ID/Info                    : Advanced Video Coding\nDuration                         : 1h 52mn\nBit rate mode                    : Variable\nBit rate                         : 2 304 Kbps\nNominal bit rate                 : 2 319 Kbps\nMaximum bit rate                 : 14.3 Mbps\nWidth                            : 1 280 pixels\nHeight                           : 528 pixels\nDisplay aspect ratio             : 2.35:1\nFrame rate mode                  : Variable\nFrame rate                       : 23.976 fps\nMinimum frame rate               : 15.932 fps\nMaximum frame rate               : 24.390 fps\nResolution                       : 24 bits\nColorimetry                      : 4:2:0\nScan type                        : Progressive\nBits/(Pixel*Frame)               : 0.142\nStream size                      : 1.81 GiB (86%)\nWriting library                  : x264 core 112\n\nAudio\nID                               : 2\nFormat                           : AAC\nFormat/Info                      : Advanced Audio Codec\nFormat version                   : Version 4\nFormat profile                   : LC\nFormat settings, SBR             : No\nCodec ID                         : 40\nDuration                         : 1h 52mn\nBit rate mode                    : Variable\nBit rate                         : 384 Kbps\nMaximum bit rate                 : 605 Kbps\nChannel(s)                       : 6 channels\nChannel positions                : Front: L C R, Rear: L R, LFE\nSampling rate                    : 48.0 KHz\nResolution                       : 16 bits\nStream size                      : 309 MiB (14%)\nLanguage                         : English\n\n\nEnjoy...\n\nRequested by DreamExtractor. \n\nMore coming up.","torrent":{"xt":"urn:btih:01305f6167b60aa752ff2071761ff97d875c6ee5","amp;dn":"Falling+Down-720p+MP4+AAC+x264+BRRip+1993-CC","amp;tr":["udp%3A%2F%2Ftracker.openbittorrent.com%3A80","udp%3A%2F%2Fopen.demonii.com%3A1337","udp%3A%2F%2Ftracker.coppersurfer.tk%3A6969","udp%3A%2F%2Fexodus.desync.com%3A6969"],"infoHash":"01305f6167b60aa752ff2071761ff97d875c6ee5","infoHashBuffer":{"type":"Buffer","data":[1,48,95,97,103,182,10,167,82,255,32,113,118,31,249,125,135,92,110,229]},"announce":[],"urlList":[]}}